<?xml version="1.0" encoding="utf-8"?>
<!-- Generator: Adobe Illustrator 17.1.0, SVG Export Plug-In . SVG Version: 6.00 Build 0)  -->
<!DOCTYPE svg PUBLIC "-//W3C//DTD SVG 1.1//EN" "http://www.w3.org/Graphics/SVG/1.1/DTD/svg11.dtd">
<svg version="1.1" xmlns="http://www.w3.org/2000/svg" xmlns:xlink="http://www.w3.org/1999/xlink" x="0px" y="0px"
	 viewBox="0 0 30 30" enable-background="new 0 0 30 30" xml:space="preserve">
<g id="Layer_1">
</g>
<g id="Layer_2">
</g>
<g id="Layer_3">
	<path d="M18.572,15l8.334-8.335c0.657-0.658,0.657-1.724,0-2.381l-1.191-1.191c-0.657-0.658-1.724-0.658-2.381,0L15,11.428
		L6.665,3.093c-0.657-0.658-1.724-0.658-2.381,0L3.093,4.284c-0.657,0.658-0.657,1.724,0,2.381L11.428,15l-8.335,8.335
		c-0.657,0.658-0.657,1.724,0,2.381l1.191,1.191c0.657,0.658,1.724,0.658,2.381,0L15,18.572l8.334,8.334
		c0.658,0.658,1.724,0.658,2.381,0l1.191-1.191c0.657-0.657,0.657-1.724,0-2.381L18.572,15z"/>
</g>
<g id="Layer_4">
</g>
</svg>
