<?xml version="1.0" encoding="utf-8"?>
<!-- Generator: Adobe Illustrator 17.1.0, SVG Export Plug-In . SVG Version: 6.00 Build 0)  -->
<!DOCTYPE svg PUBLIC "-//W3C//DTD SVG 1.1//EN" "http://www.w3.org/Graphics/SVG/1.1/DTD/svg11.dtd">
<svg version="1.1" xmlns="http://www.w3.org/2000/svg" xmlns:xlink="http://www.w3.org/1999/xlink" x="0px" y="0px"
	 viewBox="0 0 26.667 26.667" enable-background="new 0 0 26.667 26.667" xml:space="preserve">
<g id="Layer_1">
	<g>
		<path fill="#999999" d="M21.357,9.218c0,0.187,0,0.354,0,0.541c0,5.464-4.154,11.764-11.754,11.764
			c-2.333,0-4.528-0.512-6.35-1.683c0.325,0.049,0.65,0.069,0.984,0.069c1.93,0,3.731-0.837,5.129-1.959
			c-1.792-0.02-3.337-1.24-3.849-2.875c0.256,0.049,0.512,0.079,0.768,0.079c0.374,0,0.748-0.049,1.103-0.148
			c-1.89-0.374-3.318-2.048-3.318-4.056c0-0.02,0-0.02,0-0.049c0.561,0.305,1.191,0.492,1.87,0.512
			c-1.122-0.748-1.851-2.008-1.851-3.426c0-0.768,0.217-1.398,0.561-2.008c2.058,2.501,5.09,4.056,8.516,4.243
			c-0.069-0.295-0.089-0.63-0.089-0.955c0-2.284,1.841-4.125,4.125-4.125c1.191,0,2.264,0.512,3.042,1.299
			c0.925-0.187,1.821-0.532,2.609-1.004c-0.305,0.965-0.955,1.782-1.821,2.294c0.847-0.098,1.634-0.325,2.382-0.66
			C22.853,7.919,22.154,8.637,21.357,9.218z"/>
	</g>
</g>
<g id="Layer_2">
</g>
<g id="Layer_3">
</g>
</svg>
