<?xml version="1.0" encoding="utf-8"?>
<!-- Generator: Adobe Illustrator 17.1.0, SVG Export Plug-In . SVG Version: 6.00 Build 0)  -->
<!DOCTYPE svg PUBLIC "-//W3C//DTD SVG 1.1//EN" "http://www.w3.org/Graphics/SVG/1.1/DTD/svg11.dtd">
<svg version="1.1" xmlns="http://www.w3.org/2000/svg" xmlns:xlink="http://www.w3.org/1999/xlink" x="0px" y="0px"
	 viewBox="0 0 1280 892" enable-background="new 0 0 1280 892" xml:space="preserve">
<g id="Layer_1">
	<rect fill="#F2F2F2" width="1280" height="892"/>
	
		<line fill="#F2F2F2" stroke="#CCCCCC" stroke-width="3" stroke-miterlimit="10" x1="243.5" y1="447.742" x2="1036.5" y2="447.742"/>
	<path fill="#FFFFFF" stroke="#B3B3B3" stroke-miterlimit="10" d="M985.588,323.5h-260c-2.761,0-5-2.239-5-5v-30
		c0-2.761,2.239-5,5-5h260c2.761,0,5,2.239,5,5v30C990.588,321.261,988.349,323.5,985.588,323.5z"/>
	<rect x="720.588" y="60.218" fill="none" width="321.412" height="216.407"/>
	<text transform="matrix(1.0054 0 0 1 720.5876 73.5577)"><tspan x="0" y="0" fill="#808080" font-family="'ProximaNova-Regular'" font-size="20">Invest In Your Friends Too.</tspan><tspan x="0" y="34" fill="#231F20" font-family="'ProximaNova-Bold'" font-size="30">Invite Your Friends to   </tspan><tspan x="0" y="68" fill="#231F20" font-family="'ProximaNova-Bold'" font-size="30">Gain Early Access </tspan><tspan x="0" y="102" fill="#231F20" font-family="'ProximaNova-Bold'" font-size="30">and Points</tspan><tspan x="0" y="134" fill="#231F20" font-family="'ProximaNova-Regular'" font-size="16">Share your unique url via twitter, facebook, </tspan><tspan x="0" y="156" fill="#231F20" font-family="'ProximaNova-Regular'" font-size="16">and/or email. Earn bonuses for each friend </tspan><tspan x="0" y="178" fill="#231F20" font-family="'ProximaNova-Regular'" font-size="16">who signs up!</tspan></text>
	<rect x="724.254" y="298.037" fill="none" width="262.667" height="14.333"/>
	<text transform="matrix(1.0054 0 0 1 751.5554 308.709)" fill="#231F20" font-family="'ProximaNova-Regular'" font-size="16">yellowbird.io/?ref=gtjumperzo</text>
	<g>
		<g opacity="0.1">
			<circle cx="743.792" cy="370.322" r="19.792"/>
			<circle fill="none" stroke="#000000" stroke-width="2" stroke-miterlimit="10" cx="743.792" cy="370.322" r="19.792"/>
		</g>
		<g>
			<circle fill="#8CCBF9" cx="743.792" cy="368.322" r="19.792"/>
			<circle fill="none" stroke="#3FA9F5" stroke-width="2" stroke-miterlimit="10" cx="743.792" cy="368.322" r="19.792"/>
		</g>
	</g>
	<g>
		<g opacity="0.1">
			<circle cx="797.792" cy="370.322" r="19.792"/>
			<circle fill="none" stroke="#000000" stroke-width="2" stroke-miterlimit="10" cx="797.792" cy="370.322" r="19.792"/>
		</g>
		<g>
			<circle fill="#899BC1" cx="797.792" cy="368.322" r="19.792"/>
			<circle fill="none" stroke="#3B5998" stroke-width="2" stroke-miterlimit="10" cx="797.792" cy="368.322" r="19.792"/>
		</g>
	</g>
	<g>
		<g opacity="0.1">
			<circle cx="851.792" cy="370.322" r="19.792"/>
			<circle fill="none" stroke="#000000" stroke-width="2" stroke-miterlimit="10" cx="851.792" cy="370.322" r="19.792"/>
		</g>
		<g>
			<circle fill="#B3B3B3" cx="851.792" cy="368.322" r="19.792"/>
			<circle fill="none" stroke="#666666" stroke-width="2" stroke-miterlimit="10" cx="851.792" cy="368.322" r="19.792"/>
		</g>
	</g>
	<g>
		<path fill="#FFFFFF" d="M750.902,366.203c0,0.142,0,0.269,0,0.41c0,4.141-3.163,8.916-8.951,8.916
			c-1.777,0-3.448-0.388-4.835-1.276c0.247,0.037,0.495,0.052,0.749,0.052c1.47,0,2.841-0.634,3.906-1.485
			c-1.364-0.015-2.541-0.94-2.931-2.179c0.195,0.037,0.389,0.06,0.585,0.06c0.285,0,0.57-0.037,0.839-0.112
			c-1.439-0.284-2.526-1.552-2.526-3.074c0-0.015,0-0.015,0-0.037c0.427,0.231,0.907,0.373,1.424,0.388
			c-0.855-0.567-1.409-1.522-1.409-2.597c0-0.582,0.165-1.06,0.427-1.522c1.567,1.895,3.876,3.074,6.484,3.216
			c-0.052-0.224-0.067-0.478-0.067-0.724c0-1.731,1.402-3.126,3.141-3.126c0.907,0,1.724,0.388,2.316,0.985
			c0.705-0.142,1.387-0.403,1.987-0.761c-0.232,0.731-0.727,1.35-1.387,1.738c0.645-0.075,1.245-0.246,1.814-0.5
			C752.041,365.218,751.509,365.763,750.902,366.203z"/>
	</g>
	<g>
		<path fill="#FFFFFF" d="M851.792,369.19l-6.976-5.208c0-0.481,0.388-0.868,0.872-0.868h12.208c0.484,0,0.872,0.387,0.872,0.868
			L851.792,369.19z M851.792,370.749l6.976-5.208v7.12c0,0.481-0.388,0.868-0.872,0.868h-12.208c-0.484,0-0.872-0.387-0.872-0.868
			v-7.12L851.792,370.749z"/>
	</g>
	<path fill="#FFFFFF" d="M801.526,369.02l0.422-2.881h-2.934v-2.266c0-0.82,0.422-1.289,1.256-1.289h1.884v-2.598
		c0,0-0.844-0.137-2.061-0.137c-2.757,0-4.15,1.523-4.15,3.799v2.49h-2.512v2.881h2.512v7.773h3.071v-7.773H801.526z"/>
	<circle fill="#E6E6E6" stroke="#CCCCCC" stroke-width="4" stroke-miterlimit="10" cx="478" cy="223" r="160.117"/>
	<rect x="203.619" y="507.264" fill="none" width="864.311" height="66.737"/>
	<text transform="matrix(1.0054 0 0 1 525.0559 527.2737)"><tspan x="0" y="0" fill="#231F20" font-family="'ProximaNova-Bold'" font-size="30">How This Works</tspan><tspan x="-164.859" y="28.8" fill="#4D4D4D" font-family="'ProximaNova-Regular'" font-size="24">The more friends sign up, the more benefits you get.</tspan></text>
	<rect x="203.619" y="765.264" fill="none" width="864.311" height="41.737"/>
	<text transform="matrix(1.0054 0 0 1 521.6238 781.2717)"><tspan x="0" y="0" fill="#3FA9F5" font-family="'ProximaNova-Bold'" font-size="24">8</tspan><tspan x="14.952" y="0" fill="#4D4D4D" font-family="'ProximaNova-Regular'" font-size="24"> friends have joined!</tspan></text>
	<path fill="#FFFFFF" stroke="#3FA9F5" stroke-width="2" stroke-miterlimit="10" d="M959.117,721.898H322.805c-2.761,0-5-2.239-5-5
		V608.659c0-2.761,2.239-5,5-5h636.311c2.761,0,5,2.239,5,5v108.239C964.117,719.659,961.878,721.898,959.117,721.898z"/>
	<path opacity="0.3" fill="#65BAF7" d="M681.371,721.018H327.06c-5.523,0-10-4.477-10-10v-98.239c0-5.523,4.477-10,10-10h354.311
		V721.018z"/>
	<g>
		<rect x="748.039" y="624.245" fill="none" width="216.078" height="79.631"/>
		<text transform="matrix(1.0054 0 0 1 837.439 644.2551)"><tspan x="0" y="0" fill="#3FA9F5" font-family="'ProximaNova-Bold'" font-size="30">15</tspan><tspan x="-78.461" y="31.6" fill="#808080" font-family="'ProximaNova-Regular'" font-size="18">Round 1 Access, 500 Pts  </tspan><tspan x="-48.122" y="53.2" fill="#808080" font-family="'ProximaNova-Regular'" font-size="18">&amp; YellowBird Tee</tspan></text>
	</g>
	<g>
		<rect x="531.961" y="623.622" fill="none" width="216.078" height="78.313"/>
		<text transform="matrix(1.0054 0 0 1 621.361 643.6318)"><tspan x="0" y="0" fill="#3FA9F5" font-family="'ProximaNova-Bold'" font-size="30">10</tspan><tspan x="-46.277" y="31.6" fill="#808080" font-family="'ProximaNova-Regular'" font-size="18">Round 1 Access, </tspan><tspan x="-13.734" y="53.2" fill="#808080" font-family="'ProximaNova-Regular'" font-size="18"> 500 Pts</tspan></text>
	</g>
	<g>
		<rect x="315.883" y="634.731" fill="none" width="216.078" height="56.094"/>
		<text transform="matrix(1.0054 0 0 1 414.5275 654.7415)"><tspan x="0" y="0" fill="#3FA9F5" font-family="'ProximaNova-Bold'" font-size="30">5</tspan><tspan x="-53.493" y="31.6" fill="#808080" font-family="'ProximaNova-Regular'" font-size="18">Round 1 Access </tspan></text>
	</g>
	
		<line fill="none" stroke="#3FA9F5" stroke-width="2" stroke-miterlimit="10" x1="531.961" y1="721.898" x2="531.961" y2="603.659"/>
	<line fill="none" stroke="#3FA9F5" stroke-width="2" stroke-miterlimit="10" x1="748.039" y1="722.18" x2="748.039" y2="603.941"/>
</g>
<g id="Modal">
</g>
</svg>
