<?xml version="1.0" encoding="utf-8"?>
<!-- Generator: Adobe Illustrator 17.1.0, SVG Export Plug-In . SVG Version: 6.00 Build 0)  -->
<!DOCTYPE svg PUBLIC "-//W3C//DTD SVG 1.1//EN" "http://www.w3.org/Graphics/SVG/1.1/DTD/svg11.dtd">
<svg version="1.1" xmlns="http://www.w3.org/2000/svg" xmlns:xlink="http://www.w3.org/1999/xlink" x="0px" y="0px"
	 viewBox="0 0 1280 720" enable-background="new 0 0 1280 720" xml:space="preserve">
<g id="Layer_1">
	<rect x="639" fill="#A4E7C4" width="640" height="720"/>
	<rect fill="#E6E6E6" width="640" height="720"/>
	<rect x="705.395" y="517.004" fill="none" width="509.974" height="91.996"/>
	<text transform="matrix(1 0 0 1 827.2291 537.0134)"><tspan x="0" y="0" fill="#333333" font-family="'ProximaNova-Bold'" font-size="30">Gamified Education</tspan><tspan x="-48.653" y="39" fill="#333333" font-family="'ProximaNova-Regular'" font-size="20">1 part learning, 1 part trading. All parts fun.  </tspan><tspan x="69.775" y="63" fill="#333333" font-family="'ProximaNova-Regular'" font-size="20">All parts FREE!</tspan></text>
	<rect x="63.039" y="517.004" fill="none" width="509.974" height="91.996"/>
	<text transform="matrix(1 0 0 1 153.9431 537.0134)"><tspan x="0" y="0" font-family="'ProximaNova-Bold'" font-size="30">Why Should You Invest?</tspan><tspan x="-76.434" y="39" font-family="'ProximaNova-Regular'" font-size="20">Let’s see what investing can do for you. Where was the </tspan><tspan x="4.555" y="63" font-family="'ProximaNova-Regular'" font-size="20">last place you spent more than $50?</tspan></text>
	<g>
		<rect x="879" y="147" fill="#FFFFFF" width="162" height="289"/>
		<g id="XMLID_9_">
			<g>
				<path fill="#E6E6E6" d="M1027.396,308.262v45.752c0,1.403-1.139,2.542-2.542,2.542h-64.943v-0.381v-50.328v-0.127h64.943
					C1026.257,305.72,1027.396,306.859,1027.396,308.262z"/>
				<path fill="#8CCBF9" d="M959.911,356.174v0.381h-64.689c-1.403,0-2.542-1.139-2.542-2.542v-45.752
					c0-1.403,1.139-2.542,2.542-2.542h64.689v0.127V356.174z"/>
			</g>
			<g>
				<path fill="none" stroke="#000000" stroke-width="0.5" stroke-miterlimit="10" d="M959.911,305.72h64.943
					c1.403,0,2.542,1.139,2.542,2.542v45.752c0,1.403-1.139,2.542-2.542,2.542h-64.943h-64.689c-1.403,0-2.542-1.139-2.542-2.542
					v-45.752c0-1.403,1.139-2.542,2.542-2.542H959.911z"/>
				
					<line fill="none" stroke="#000000" stroke-width="0.5" stroke-miterlimit="10" x1="959.911" y1="305.847" x2="959.911" y2="356.174"/>
			</g>
		</g>
		<path fill="#46DC96" stroke="#00BD70" stroke-width="0.5" stroke-miterlimit="10" d="M1024.471,403.706H894.84
			c-1.404,0-2.542-1.138-2.542-2.542v-16.522c0-1.404,1.138-2.542,2.542-2.542h129.632c1.404,0,2.542,1.138,2.542,2.542v16.522
			C1027.013,402.568,1025.875,403.706,1024.471,403.706z"/>
		<g>
			<text transform="matrix(1 0 0 1 944.0342 395.7896)" fill="#FFFFFF" font-family="'ProximaNova-Semibold'" font-size="10.1672">Submit</text>
		</g>
		<g>
			<g>
				<rect x="1010.86" y="392.751" fill="#FFFFFF" width="9.178" height="1.017"/>
				<g>
					<polygon fill="#FFFFFF" points="1017.005,397.003 1016.38,396.333 1019.686,393.26 1016.38,390.187 1017.005,389.517 
						1021.03,393.26 					"/>
				</g>
			</g>
		</g>
		<g>
			<rect x="885.873" y="186.365" fill="none" width="148.627" height="75.075"/>
			<text transform="matrix(1 0 0 1 885.873 193.4858)"><tspan x="0" y="0" fill="#58595B" font-family="'ProximaNova-Regular'" font-size="10.6755">Another possible question and </tspan><tspan x="0" y="12.963" fill="#58595B" font-family="'ProximaNova-Regular'" font-size="10.6755">answer format the user will see </tspan><tspan x="0" y="25.926" fill="#58595B" font-family="'ProximaNova-Regular'" font-size="10.6755">is a True or False scenario.  </tspan><tspan x="0" y="38.889" fill="#58595B" font-family="'ProximaNova-Regular'" font-size="10.6755">As consistent with the teaching, </tspan><tspan x="0" y="51.853" fill="#58595B" font-family="'ProximaNova-Regular'" font-size="10.6755">the question will be short. </tspan></text>
		</g>
		<path fill="none" stroke="#CBCBCB" stroke-miterlimit="10" d="M878.827,353.566"/>
		<g>
			<rect x="892.679" y="327.604" fill="none" width="67.485" height="10.427"/>
			<text transform="matrix(1 0 0 1 914.1357 335.7412)" fill="#FFFFFF" font-family="'ProximaNova-Regular'" font-size="12.2006">True</text>
		</g>
		<g>
			<rect x="959.656" y="327.604" fill="none" width="67.358" height="10.427"/>
			<text transform="matrix(1 0 0 1 979.1211 335.7412)" fill="#666666" font-family="'ProximaNova-Regular'" font-size="12.2006">False</text>
		</g>
		<rect x="878.942" y="146.988" fill="#F4F5F6" width="162.559" height="30.07"/>
		<line fill="none" stroke="#CAC9C9" stroke-miterlimit="10" x1="878.827" y1="177.059" x2="1041.501" y2="177.059"/>
		<path fill="#221F1F" d="M892.668,156.016l-0.18-0.18c-0.198-0.198-0.52-0.198-0.719,0l-2.426,2.426l-2.426-2.426
			c-0.198-0.198-0.52-0.198-0.719,0l-0.18,0.18c-0.198,0.198-0.198,0.52,0,0.719l2.426,2.426l-2.426,2.426
			c-0.198,0.198-0.198,0.52,0,0.719l0.18,0.18c0.198,0.198,0.52,0.198,0.719,0l2.426-2.426l2.426,2.426
			c0.198,0.198,0.52,0.198,0.719,0l0.18-0.18c0.198-0.198,0.198-0.52,0-0.719l-2.426-2.426l2.426-2.426
			C892.866,156.537,892.866,156.215,892.668,156.016z"/>
		<g>
			<path fill="#EB2024" d="M1032.742,155.951c-0.476,0-0.945,0.147-1.336,0.417c-0.353,0.243-0.258,0.243-0.61,0
				c-0.219-0.151-0.464-0.266-0.721-0.335c-0.923-0.25-1.929,0.098-2.504,0.86c-1.399,1.854,0.457,3.683,1.956,4.64
				c0.4,0.255,0.812,0.49,1.233,0.71c0.324,0.17,0.361,0.17,0.685,0c0.241-0.126,0.48-0.258,0.715-0.395
				c0.898-0.524,1.858-1.144,2.459-2.014C1035.703,158.262,1034.762,155.951,1032.742,155.951z"/>
		</g>
		<g>
			<path fill="#EB2024" d="M1022.709,155.951c-0.476,0-0.945,0.147-1.336,0.417c-0.353,0.243-0.258,0.243-0.61,0
				c-0.219-0.151-0.464-0.266-0.721-0.335c-0.923-0.25-1.929,0.098-2.504,0.86c-1.399,1.854,0.457,3.683,1.956,4.64
				c0.4,0.255,0.813,0.49,1.233,0.71c0.324,0.17,0.361,0.17,0.685,0c0.241-0.126,0.48-0.258,0.715-0.395
				c0.898-0.524,1.858-1.144,2.459-2.014C1025.67,158.262,1024.729,155.951,1022.709,155.951z"/>
		</g>
		<g opacity="0.25">
			<g>
				<path fill="#EB2024" d="M1012.676,155.951c-0.476,0-0.945,0.147-1.336,0.417c-0.353,0.243-0.258,0.243-0.61,0
					c-0.219-0.151-0.464-0.266-0.721-0.335c-0.923-0.25-1.929,0.098-2.504,0.86c-1.399,1.854,0.457,3.683,1.956,4.64
					c0.4,0.255,0.813,0.49,1.233,0.71c0.324,0.17,0.361,0.17,0.685,0c0.241-0.126,0.48-0.258,0.715-0.395
					c0.898-0.524,1.858-1.144,2.459-2.014C1015.637,158.262,1014.696,155.951,1012.676,155.951z"/>
			</g>
		</g>
		<path fill="#3FA8F4" d="M895.094,171.64h-9.659c-0.14,0-0.254-0.114-0.254-0.254v-1.525c0-0.14,0.114-0.254,0.254-0.254h9.659
			c0.281,0,0.508,0.228,0.508,0.508v1.017C895.602,171.412,895.375,171.64,895.094,171.64z"/>
		<path fill="#3FA8F4" d="M906.659,171.64h-9.405c-0.281,0-0.508-0.228-0.508-0.508v-1.017c0-0.281,0.228-0.508,0.508-0.508h9.405
			c0.281,0,0.508,0.228,0.508,0.508v1.017C907.168,171.412,906.94,171.64,906.659,171.64z"/>
		<path fill="#3FA8F4" d="M918.224,171.64h-9.405c-0.281,0-0.508-0.228-0.508-0.508v-1.017c0-0.281,0.228-0.508,0.508-0.508h9.405
			c0.281,0,0.508,0.228,0.508,0.508v1.017C918.733,171.412,918.505,171.64,918.224,171.64z"/>
		<path fill="#3FA8F4" d="M929.79,171.64h-9.405c-0.281,0-0.508-0.228-0.508-0.508v-1.017c0-0.281,0.228-0.508,0.508-0.508h9.405
			c0.281,0,0.508,0.228,0.508,0.508v1.017C930.298,171.412,930.07,171.64,929.79,171.64z"/>
		<path fill="#CBCBCB" d="M941.355,171.64h-9.405c-0.281,0-0.508-0.228-0.508-0.508v-1.017c0-0.281,0.228-0.508,0.508-0.508h9.405
			c0.281,0,0.508,0.228,0.508,0.508v1.017C941.863,171.412,941.635,171.64,941.355,171.64z"/>
		<path fill="#CBCBCB" d="M952.92,171.64h-9.405c-0.281,0-0.508-0.228-0.508-0.508v-1.017c0-0.281,0.228-0.508,0.508-0.508h9.405
			c0.281,0,0.508,0.228,0.508,0.508v1.017C953.428,171.412,953.201,171.64,952.92,171.64z"/>
		<path fill="#CBCBCB" d="M964.485,171.64h-9.405c-0.281,0-0.508-0.228-0.508-0.508v-1.017c0-0.281,0.228-0.508,0.508-0.508h9.405
			c0.281,0,0.508,0.228,0.508,0.508v1.017C964.993,171.412,964.766,171.64,964.485,171.64z"/>
		<path fill="#CBCBCB" d="M976.05,171.64h-9.405c-0.281,0-0.508-0.228-0.508-0.508v-1.017c0-0.281,0.228-0.508,0.508-0.508h9.405
			c0.281,0,0.508,0.228,0.508,0.508v1.017C976.559,171.412,976.331,171.64,976.05,171.64z"/>
		<path fill="#CBCBCB" d="M987.615,171.64h-9.405c-0.281,0-0.508-0.228-0.508-0.508v-1.017c0-0.281,0.228-0.508,0.508-0.508h9.405
			c0.281,0,0.508,0.228,0.508,0.508v1.017C988.124,171.412,987.896,171.64,987.615,171.64z"/>
		<path fill="#CBCBCB" d="M999.181,171.64h-9.405c-0.281,0-0.508-0.228-0.508-0.508v-1.017c0-0.281,0.228-0.508,0.508-0.508h9.405
			c0.281,0,0.508,0.228,0.508,0.508v1.017C999.689,171.412,999.461,171.64,999.181,171.64z"/>
		<path fill="#CBCBCB" d="M1010.746,171.64h-9.405c-0.281,0-0.508-0.228-0.508-0.508v-1.017c0-0.281,0.228-0.508,0.508-0.508h9.405
			c0.281,0,0.508,0.228,0.508,0.508v1.017C1011.254,171.412,1011.026,171.64,1010.746,171.64z"/>
		<path fill="#CBCBCB" d="M1022.311,171.64h-9.405c-0.281,0-0.508-0.228-0.508-0.508v-1.017c0-0.281,0.228-0.508,0.508-0.508h9.405
			c0.281,0,0.508,0.228,0.508,0.508v1.017C1022.819,171.412,1022.592,171.64,1022.311,171.64z"/>
		<path fill="#CBCBCB" d="M1033.876,171.64h-9.405c-0.281,0-0.508-0.228-0.508-0.508v-1.017c0-0.281,0.228-0.508,0.508-0.508h9.405
			c0.281,0,0.508,0.228,0.508,0.508v1.017C1034.384,171.412,1034.157,171.64,1033.876,171.64z"/>
		<rect x="878.942" y="414.763" fill="#F5F6F6" width="162.487" height="20.97"/>
		<line fill="none" stroke="#C9C8C8" stroke-miterlimit="10" x1="879" y1="414.5" x2="1041" y2="414.5"/>
		<line fill="none" stroke="#C9C8C8" stroke-miterlimit="10" x1="879" y1="414.5" x2="1041" y2="414.5"/>
		<path fill="#CBCBCB" d="M1015.885,421.252h-4.398l-0.34-0.464l-0.152-0.208h-0.258h-3.106h-0.258l-0.152,0.208l-0.34,0.464h-0.197
			c-0.489,0-0.887,0.398-0.887,0.886v6.89c0,0.489,0.398,0.886,0.887,0.886h9.201c0.489,0,0.886-0.398,0.886-0.886v-6.89
			C1016.771,421.65,1016.373,421.252,1015.885,421.252z M1006.683,421.76h0.455l0.492-0.672h3.106l0.492,0.672h4.656
			c0.209,0,0.378,0.169,0.378,0.378v1.14c-0.116-0.156-0.3-0.258-0.508-0.258h-8.941c-0.209,0-0.392,0.102-0.508,0.258v-1.14
			C1006.305,421.93,1006.475,421.76,1006.683,421.76z M1006.432,428.899v-5.243c0-0.21,0.171-0.381,0.381-0.381h8.941
			c0.21,0,0.381,0.171,0.381,0.381v5.243c0,0.21-0.171,0.381-0.381,0.381h-8.941C1006.603,429.28,1006.432,429.109,1006.432,428.899
			z"/>
		<g>
			<path fill="#CBCBCB" d="M973.11,421.739c0.103-0.385-0.111-0.789-0.489-0.918l-1.693-0.58c-0.378-0.129-0.794,0.057-0.947,0.421
				l-2.228,5.012c-0.069,0.164-0.078,0.349-0.026,0.52l0.386,1.254l-0.097,0.618l2.106,0.722l0.302-0.547l1.074-0.754
				c0.146-0.102,0.252-0.254,0.299-0.431L973.11,421.739z M970.408,420.846c0.06-0.143,0.222-0.216,0.369-0.165l1.693,0.58
				c0.147,0.05,0.23,0.207,0.189,0.362l-1.274,5.161l-3.138-1.076L970.408,420.846z M971.231,427.104l-1.162,0.815l-0.165,0.299
				l-1.367-0.468l0.053-0.338l-0.418-1.357c-0.02-0.066-0.017-0.138,0.008-0.198l0.019-0.043l3.158,1.082l-0.01,0.041
				C971.329,427.005,971.287,427.064,971.231,427.104z"/>
			<path fill="#CBCBCB" d="M969.524,429.089l-1.223-0.419c-0.122-0.042-0.254,0.023-0.296,0.145l-0.253,0.737
				c-0.048,0.141,0.062,0.319,0.21,0.336l1.339-0.001c0.104,0,0.211-0.053,0.246-0.156l0.12-0.346
				C969.711,429.263,969.646,429.131,969.524,429.089z"/>
		</g>
		<g>
			<path fill="#CBCBCB" d="M993.886,421.883h-2.475c-0.147,0-0.267,0.119-0.267,0.267v0.008c0,0.147,0.119,0.267,0.267,0.267h2.475
				c0.147,0,0.267-0.119,0.267-0.267v-0.008C994.153,422.002,994.034,421.883,993.886,421.883z"/>
			<path fill="#CBCBCB" d="M991.412,428.533h2.475c0.147,0,0.267-0.12,0.267-0.267v-0.008c0-0.147-0.12-0.267-0.267-0.267h-2.475
				c-0.147,0-0.267,0.12-0.267,0.267v0.008C991.145,428.413,991.264,428.533,991.412,428.533z"/>
			<path fill="#CBCBCB" d="M986.404,424.062h0.008c0.147,0,0.267-0.119,0.267-0.267v-1.371h1.371c0.147,0,0.267-0.119,0.267-0.267
				v-0.008c0-0.147-0.12-0.267-0.267-0.267h-1.371v-1.371c0-0.147-0.119-0.267-0.267-0.267h-0.008c-0.147,0-0.267,0.119-0.267,0.267
				v1.371h-1.371c-0.147,0-0.267,0.119-0.267,0.267v0.008c0,0.147,0.12,0.267,0.267,0.267h1.371v1.371
				C986.137,423.943,986.256,424.062,986.404,424.062z"/>
			<path fill="#CBCBCB" d="M987.571,426.716l-1.163,1.163l-1.163-1.163c-0.104-0.104-0.273-0.104-0.377,0l-0.005,0.005
				c-0.104,0.104-0.104,0.273,0,0.377l1.163,1.163l-1.163,1.163c-0.104,0.104-0.104,0.273,0,0.377l0.005,0.005
				c0.104,0.104,0.273,0.104,0.377,0l1.163-1.163l1.163,1.163c0.104,0.104,0.273,0.104,0.377,0l0.005-0.005
				c0.104-0.104,0.104-0.273,0-0.377l-1.163-1.163l1.163-1.163c0.104-0.104,0.104-0.273,0-0.377l-0.005-0.005
				C987.844,426.612,987.675,426.612,987.571,426.716z"/>
			<circle fill="#CBCBCB" cx="992.649" cy="427.142" r="0.406"/>
			<circle fill="#CBCBCB" cx="992.649" cy="429.4" r="0.406"/>
			<polygon fill="#CBCBCB" points="989.557,425.157 989.557,419.539 989.376,419.539 989.376,425.157 983.848,425.157 
				983.848,425.338 989.376,425.338 989.376,430.957 989.557,430.957 989.557,425.338 995.085,425.338 995.085,425.157 			"/>
		</g>
		<g>
			<path fill="#CBCBCB" d="M1028.736,424.223c0.131,0.122,0.337,0.115,0.459-0.016l1.619-1.741v4.347
				c0,0.179,0.145,0.325,0.325,0.325h0.08c0.179,0,0.325-0.145,0.325-0.325v-4.349l1.62,1.743c0.122,0.132,0.328,0.139,0.459,0.017
				l0.006-0.005c0.131-0.122,0.138-0.328,0.016-0.459l-2.198-2.365c-0.145-0.155-0.39-0.155-0.535,0l-2.199,2.365
				c-0.122,0.131-0.115,0.337,0.016,0.459L1028.736,424.223z"/>
			<path fill="#CBCBCB" d="M1034.558,427.231c-0.176,0-0.318,0.142-0.318,0.318v0.835c0,0.385-0.313,0.699-0.699,0.699h-4.724
				c-0.385,0-0.699-0.314-0.699-0.699v-0.835c0-0.175-0.142-0.318-0.318-0.318c-0.176,0-0.318,0.142-0.318,0.318v0.835
				c0,0.736,0.599,1.334,1.334,1.334h4.724c0.736,0,1.334-0.599,1.334-1.334v-0.835
				C1034.876,427.373,1034.734,427.231,1034.558,427.231z"/>
		</g>
		<path fill="#FFFFFF" stroke="#C9C8C8" stroke-miterlimit="10" d="M950.31,431.856h-62.528c-1.123,0-2.033-0.91-2.033-2.033v-9.15
			c0-1.123,0.91-2.033,2.033-2.033h62.528c1.123,0,2.033,0.91,2.033,2.033v9.15C952.343,430.946,951.433,431.856,950.31,431.856z"/>
		<g>
			<text transform="matrix(1 0 0 1 889.2441 427.9688)" fill="#B9BBBD" font-family="'BerninoSansOffc'" font-size="7.6254">Start a note...</text>
		</g>
	</g>
	<g>
		<g id="XMLID_8_">
			<g>
				<path d="M1054.388,176.461v22.349c0,0.662-0.543,1.197-1.205,1.197h-0.902v253.892c0,14.112-11.438,25.55-25.55,25.55H893.89
					c-14.112,0-25.55-11.438-25.55-25.55V229.867h-0.766c-0.662,0-1.197-0.543-1.197-1.205v-21.639c0-0.662,0.535-1.205,1.197-1.205
					h0.766v-5.611h-0.766c-0.662,0-1.197-0.535-1.197-1.197v-21.647c0-0.662,0.535-1.197,1.197-1.197h0.766v-15.181h-0.766
					c-0.662,0-1.197-0.535-1.197-1.197v-10.376c0-0.662,0.535-1.197,1.197-1.197h0.766v-18.749c0-14.112,11.438-25.55,25.55-25.55
					h132.841c14.112,0,25.55,11.438,25.55,25.55v45.799h0.902C1053.845,175.264,1054.388,175.798,1054.388,176.461z
					 M1048.37,453.899V129.464c0-11.933-9.706-21.639-21.639-21.639H893.89c-11.933,0-21.639,9.706-21.639,21.639v324.435
					c0,11.933,9.706,21.639,21.639,21.639h132.841C1038.664,475.538,1048.37,465.832,1048.37,453.899z"/>
				<path fill="#FFFFFF" d="M1048.37,129.464v324.435c0,11.933-9.706,21.639-21.639,21.639H893.89
					c-11.933,0-21.639-9.706-21.639-21.639V129.464c0-11.933,9.706-21.639,21.639-21.639h132.841
					C1038.664,107.826,1048.37,117.531,1048.37,129.464z M1042.375,437.01V148.213H878.246V437.01H1042.375z M983.055,126.271
					c0-0.998-0.806-1.804-1.804-1.804h-24.648c-0.998,0-1.804,0.806-1.804,1.804c0,0.998,0.806,1.804,1.804,1.804h24.648
					C982.249,128.075,983.055,127.269,983.055,126.271z M974.435,455.089c0-7.79-6.338-14.128-14.128-14.128
					c-7.782,0-14.12,6.338-14.12,14.128c0,7.79,6.338,14.12,14.12,14.12C968.097,469.209,974.435,462.879,974.435,455.089z
					 M946.786,126.271c0-2.051-1.66-3.712-3.704-3.712c-2.051,0-3.712,1.66-3.712,3.712c0,2.043,1.66,3.704,3.712,3.704
					C945.125,129.975,946.786,128.315,946.786,126.271z"/>
				<path d="M1042.375,148.213V437.01H878.246V148.213H1042.375z M1040.867,435.509V149.714H879.755v285.796H1040.867z"/>
				<path d="M981.251,124.468c0.998,0,1.804,0.806,1.804,1.804c0,0.998-0.806,1.804-1.804,1.804h-24.648
					c-0.998,0-1.804-0.806-1.804-1.804c0-0.998,0.806-1.804,1.804-1.804H981.251z"/>
				<path d="M960.307,440.961c7.79,0,14.128,6.338,14.128,14.128c0,7.79-6.338,14.12-14.128,14.12c-7.782,0-14.12-6.33-14.12-14.12
					C946.187,447.299,952.525,440.961,960.307,440.961z M971.729,455.089c0-6.298-5.124-11.422-11.422-11.422
					s-11.414,5.124-11.414,11.422c0,6.298,5.116,11.422,11.414,11.422S971.729,461.386,971.729,455.089z"/>
				<path fill="#FFFFFF" d="M960.307,443.667c6.298,0,11.422,5.124,11.422,11.422c0,6.298-5.124,11.422-11.422,11.422
					s-11.414-5.124-11.414-11.422C948.893,448.791,954.009,443.667,960.307,443.667z"/>
				<path d="M943.082,122.56c2.043,0,3.704,1.66,3.704,3.712c0,2.043-1.66,3.704-3.704,3.704c-2.051,0-3.712-1.66-3.712-3.704
					C939.371,124.22,941.031,122.56,943.082,122.56z M944.08,126.271c0-0.551-0.447-1.006-0.998-1.006
					c-0.559,0-1.006,0.455-1.006,1.006s0.447,0.998,1.006,0.998C943.633,127.269,944.08,126.822,944.08,126.271z"/>
			</g>
		</g>
	</g>
	<g>
		<path fill="#FFFFFF" d="M243.356,668.5c-2.481,0-4.5-2.019-4.5-4.5v-30c0-2.481,2.019-4.5,4.5-4.5h150c2.481,0,4.5,2.019,4.5,4.5
			v30c0,2.481-2.019,4.5-4.5,4.5H243.356z"/>
		<g>
			<path fill="#4D4D4D" d="M393.356,630c2.206,0,4,1.794,4,4v30c0,2.206-1.794,4-4,4h-150c-2.206,0-4-1.794-4-4v-30
				c0-2.206,1.794-4,4-4H393.356 M393.356,629h-150c-2.761,0-5,2.239-5,5v30c0,2.761,2.239,5,5,5h150c2.761,0,5-2.239,5-5v-30
				C398.356,631.239,396.117,629,393.356,629L393.356,629z"/>
		</g>
	</g>
	<g>
		<text transform="matrix(1 0 0 1 279.0754 655.5217)" fill="#4D4D4D" font-family="'ProximaNova-Semibold'" font-size="22">Sign Up!</text>
	</g>
	<g>
		<path fill="#FFFFFF" d="M885.311,668.5c-2.481,0-4.5-2.019-4.5-4.5v-30c0-2.481,2.019-4.5,4.5-4.5h150c2.481,0,4.5,2.019,4.5,4.5
			v30c0,2.481-2.019,4.5-4.5,4.5H885.311z"/>
		<g>
			<path fill="#4D4D4D" d="M1035.311,630c2.206,0,4,1.794,4,4v30c0,2.206-1.794,4-4,4h-150c-2.206,0-4-1.794-4-4v-30
				c0-2.206,1.794-4,4-4H1035.311 M1035.311,629h-150c-2.761,0-5,2.239-5,5v30c0,2.761,2.239,5,5,5h150c2.761,0,5-2.239,5-5v-30
				C1040.311,631.239,1038.072,629,1035.311,629L1035.311,629z"/>
		</g>
	</g>
	<g>
		<text transform="matrix(1 0 0 1 898.3486 655.5217)" fill="#4D4D4D" font-family="'ProximaNova-Semibold'" font-size="22">How It Works</text>
	</g>
	<g>
		<text transform="matrix(1 0 0 1 1146.9556 55.5218)" fill="#4D4D4D" font-family="'ProximaNova-Semibold'" font-size="22">About</text>
	</g>
</g>
<g id="Modal">
	<rect opacity="0.6" fill="#4D4D4D" width="1279" height="720"/>
	<g>
		<path fill="#F2F2F2" d="M945,462H335c-5.523,0-10-4.477-10-10V222c0-5.523,4.477-10,10-10h610c5.523,0,10,4.477,10,10v230
			C955,457.523,950.523,462,945,462z"/>
		<rect x="348" y="243.939" fill="none" width="584" height="189.061"/>
		<text transform="matrix(1.0054 0 0 1 502.542 275.9544)"><tspan x="0" y="0" font-family="'ProximaNova-Bold'" font-size="48">Early Access</tspan><tspan x="-21.816" y="45" fill="#999999" font-family="'ProximaNova-Regular'" font-size="24">Sign up for early access to the  </tspan><tspan x="31.091" y="74" fill="#999999" font-family="'ProximaNova-Regular'" font-size="24">YellowBird platform.</tspan></text>
		<path fill="#FFFFFF" stroke="#CCCCCC" stroke-width="2" stroke-miterlimit="10" d="M775.5,423.847h-336c-3.866,0-7-3.134-7-7v-26
			c0-3.866,3.134-7,7-7h336c3.866,0,7,3.134,7,7v26C782.5,420.713,779.366,423.847,775.5,423.847z"/>
		<path fill="#FFFFFF" stroke="#CCCCCC" stroke-width="2" stroke-miterlimit="10" d="M825.482,423.847h-26c-3.866,0-7-3.134-7-7v-26
			c0-3.866,3.134-7,7-7h26c3.866,0,7,3.134,7,7v26C832.482,420.713,829.348,423.847,825.482,423.847z"/>
		<text transform="matrix(1.0054 0 0 1 522.3418 410.3472)" font-family="'ProximaNova-Regular'" font-size="18">Your Email Goes Here</text>
		<g>
			<rect x="802.892" y="403.345" fill="#CCCCCC" width="17.073" height="1.942"/>
			<g>
				<polygon fill="#CCCCCC" points="813.53,412.26 812.205,410.837 819.22,404.318 812.205,397.797 813.53,396.375 822.071,404.318 
									"/>
			</g>
		</g>
		<g>
			
				<line fill="none" stroke="#000000" stroke-width="3" stroke-miterlimit="10" x1="915.537" y1="252.016" x2="931.861" y2="235.691"/>
			
				<line fill="none" stroke="#000000" stroke-width="3" stroke-miterlimit="10" x1="915.139" y1="235.691" x2="931.463" y2="252.016"/>
		</g>
	</g>
</g>
</svg>
