<?xml version="1.0" encoding="utf-8"?>
<!-- Generator: Adobe Illustrator 17.1.0, SVG Export Plug-In . SVG Version: 6.00 Build 0)  -->
<!DOCTYPE svg PUBLIC "-//W3C//DTD SVG 1.1//EN" "http://www.w3.org/Graphics/SVG/1.1/DTD/svg11.dtd">
<svg version="1.1" xmlns="http://www.w3.org/2000/svg" xmlns:xlink="http://www.w3.org/1999/xlink" x="0px" y="0px"
	 viewBox="0 0 1280 720" enable-background="new 0 0 1280 720" xml:space="preserve">
<g id="Layer_1">
	<rect fill="#F2F2F2" width="1280" height="720"/>
	<rect x="532.719" y="301.5" fill="#FFFFFF" width="161.374" height="135.965"/>
	<g>
		<g id="XMLID_4_">
			<g>
				<path d="M707.949,176.718v22.428c0,0.665-0.545,1.202-1.21,1.202h-0.905v254.793c0,14.162-11.478,25.64-25.64,25.64H546.882
					c-14.162,0-25.64-11.478-25.64-25.64V230.314h-0.769c-0.665,0-1.201-0.545-1.201-1.21v-21.715c0-0.665,0.537-1.21,1.201-1.21
					h0.769v-5.631h-0.769c-0.665,0-1.201-0.537-1.201-1.202v-21.723c0-0.665,0.537-1.202,1.201-1.202h0.769v-15.235h-0.769
					c-0.665,0-1.201-0.537-1.201-1.202v-10.413c0-0.665,0.537-1.202,1.201-1.202h0.769v-18.816c0-14.162,11.478-25.64,25.64-25.64
					h133.312c14.162,0,25.64,11.478,25.64,25.64v45.962h0.905C707.404,175.517,707.949,176.053,707.949,176.718z M701.909,455.141
					V129.555c0-11.975-9.74-21.715-21.715-21.715H546.882c-11.975,0-21.715,9.74-21.715,21.715v325.586
					c0,11.975,9.74,21.715,21.715,21.715h133.312C692.169,476.856,701.909,467.116,701.909,455.141z"/>
				<path fill="#FFFFFF" d="M701.909,129.555v325.586c0,11.975-9.74,21.715-21.715,21.715H546.882
					c-11.975,0-21.715-9.74-21.715-21.715V129.555c0-11.975,9.74-21.715,21.715-21.715h133.312
					C692.169,107.839,701.909,117.58,701.909,129.555z M695.894,438.192V148.37H531.182v289.821H695.894z M636.363,126.351
					c0-1.001-0.809-1.81-1.81-1.81h-24.735c-1.001,0-1.81,0.809-1.81,1.81c0,1.001,0.809,1.81,1.81,1.81h24.735
					C635.554,128.161,636.363,127.352,636.363,126.351z M627.712,456.335c0-7.818-6.36-14.178-14.178-14.178
					c-7.81,0-14.17,6.36-14.17,14.178c0,7.818,6.36,14.17,14.17,14.17C621.352,470.504,627.712,464.152,627.712,456.335z
					 M599.965,126.351c0-2.059-1.666-3.725-3.717-3.725c-2.059,0-3.725,1.666-3.725,3.725c0,2.051,1.666,3.717,3.725,3.717
					C598.299,130.067,599.965,128.401,599.965,126.351z"/>
				<path d="M695.894,148.37v289.821H531.182V148.37H695.894z M694.38,436.686V149.876H532.696v286.809H694.38z"/>
				<path d="M634.552,124.54c1.001,0,1.81,0.809,1.81,1.81c0,1.001-0.809,1.81-1.81,1.81h-24.735c-1.001,0-1.81-0.809-1.81-1.81
					c0-1.001,0.809-1.81,1.81-1.81H634.552z"/>
				<path d="M613.534,442.157c7.818,0,14.178,6.36,14.178,14.178c0,7.818-6.36,14.17-14.178,14.17c-7.81,0-14.17-6.352-14.17-14.17
					C599.364,448.517,605.724,442.157,613.534,442.157z M624.996,456.335c0-6.32-5.143-11.462-11.462-11.462
					s-11.454,5.142-11.454,11.462c0,6.32,5.134,11.462,11.454,11.462S624.996,462.654,624.996,456.335z"/>
				<path fill="#FFFFFF" d="M613.534,444.872c6.32,0,11.462,5.142,11.462,11.462c0,6.32-5.143,11.462-11.462,11.462
					s-11.454-5.142-11.454-11.462C602.08,450.015,607.214,444.872,613.534,444.872z"/>
				<path d="M596.248,122.626c2.051,0,3.717,1.666,3.717,3.725c0,2.051-1.666,3.717-3.717,3.717c-2.059,0-3.725-1.666-3.725-3.717
					C592.523,124.292,594.19,122.626,596.248,122.626z M597.25,126.351c0-0.553-0.449-1.009-1.001-1.009
					c-0.561,0-1.009,0.457-1.009,1.009s0.449,1.001,1.009,1.001C596.801,127.352,597.25,126.903,597.25,126.351z"/>
			</g>
		</g>
	</g>
	<g>
		<path fill="#88D392" d="M538.406,668.5c-2.481,0-4.5-2.019-4.5-4.5v-30c0-2.481,2.019-4.5,4.5-4.5h150c2.481,0,4.5,2.019,4.5,4.5
			v30c0,2.481-2.019,4.5-4.5,4.5H538.406z"/>
		<path fill="#00BD70" d="M688.406,630c2.206,0,4,1.794,4,4v30c0,2.206-1.794,4-4,4h-150c-2.206,0-4-1.794-4-4v-30
			c0-2.206,1.794-4,4-4H688.406 M688.406,629h-150c-2.761,0-5,2.239-5,5v30c0,2.761,2.239,5,5,5h150c2.761,0,5-2.239,5-5v-30
			C693.406,631.239,691.168,629,688.406,629L688.406,629z"/>
	</g>
	<g>
		<text transform="matrix(1 0 0 1 574.126 655.5218)" fill="#FFFFFF" font-family="'ProximaNova-Semibold'" font-size="22">Sign Up!</text>
	</g>
	<g>
		<path fill="#88D392" d="M283.543,383.48c-2.481,0-4.5-2.019-4.5-4.5v-30c0-2.481,2.019-4.5,4.5-4.5h150c2.481,0,4.5,2.019,4.5,4.5
			v30c0,2.481-2.019,4.5-4.5,4.5H283.543z"/>
		<path fill="#00BD70" d="M433.543,344.98c2.206,0,4,1.794,4,4v30c0,2.206-1.794,4-4,4h-150c-2.206,0-4-1.794-4-4v-30
			c0-2.206,1.794-4,4-4H433.543 M433.543,343.98h-150c-2.761,0-5,2.239-5,5v30c0,2.761,2.239,5,5,5h150c2.761,0,5-2.239,5-5v-30
			C438.543,346.219,436.305,343.98,433.543,343.98L433.543,343.98z"/>
	</g>
	<g>
		<text transform="matrix(1 0 0 1 319.2632 370.502)" fill="#FFFFFF" font-family="'ProximaNova-Semibold'" font-size="22">Sign Up!</text>
	</g>
	<rect x="358.543" y="517.004" fill="none" width="509.974" height="91.996"/>
	<text transform="matrix(1 0 0 1 476.3421 537.0135)"><tspan x="0" y="0" font-family="'ProximaNova-Bold'" font-size="30">Want to Learn How?</tspan><tspan x="-101.498" y="39" font-family="'ProximaNova-Regular'" font-size="20">See how we give you the tools necessary to becoming </tspan><tspan x="-42.968" y="63" font-family="'ProximaNova-Regular'" font-size="20">a great investor. Sign Up for Early Access</tspan></text>
	<linearGradient id="SVGID_1_" gradientUnits="userSpaceOnUse" x1="568.1642" y1="170.7514" x2="653.1006" y2="273.8884">
		<stop  offset="0" style="stop-color:#46DC96"/>
		<stop  offset="1" style="stop-color:#4EC48F"/>
	</linearGradient>
	<rect x="532.719" y="149.876" fill="url(#SVGID_1_)" width="161.374" height="151.624"/>
	<line fill="none" stroke="#3B936B" stroke-miterlimit="10" x1="555.137" y1="207.628" x2="688.383" y2="207.628"/>
	<line fill="none" stroke="#3B936B" stroke-miterlimit="10" x1="538.86" y1="285.922" x2="688.383" y2="285.922"/>
	<line fill="none" stroke="#CCCCCC" stroke-miterlimit="10" x1="538.86" y1="363.98" x2="688.383" y2="363.98"/>
	<line fill="none" stroke="#CCCCCC" stroke-miterlimit="10" x1="538.86" y1="397.564" x2="688.383" y2="397.564"/>
	<line fill="none" stroke="#CCCCCC" stroke-miterlimit="10" x1="538.86" y1="329.901" x2="688.384" y2="329.901"/>
	<line fill="none" stroke="#C1272D" stroke-miterlimit="10" x1="532.719" y1="301.5" x2="694.093" y2="301.5"/>
	<line fill="none" stroke="#3B936B" stroke-miterlimit="10" x1="555.137" y1="266.349" x2="688.383" y2="266.349"/>
	<line fill="none" stroke="#3B936B" stroke-miterlimit="10" x1="555.137" y1="246.775" x2="688.383" y2="246.775"/>
	<line fill="none" stroke="#3B936B" stroke-miterlimit="10" x1="555.137" y1="227.202" x2="688.383" y2="227.202"/>
	<g>
		<text transform="matrix(1.0054 0 0 1 546.2949 318.2486)" fill="#3FA9F5" font-family="'ProximaNova-Bold'" font-size="8">1D</text>
	</g>
	<g>
		<text transform="matrix(1.0054 0 0 1 536.5049 268.8506)" fill="#3B936B" font-family="'BerninoSansOffc'" font-size="7.5241">4.00</text>
	</g>
	<g>
		<text transform="matrix(1.0054 0 0 1 561.2422 296.3116)"><tspan x="0" y="0" fill="#3B936B" font-family="'BerninoSansOffc'" font-size="7.5241">10</tspan><tspan x="7.271" y="0" fill="#3B936B" font-family="'BerninoSansOffc'" font-size="6.5209">AM</tspan></text>
	</g>
	<g>
		<text transform="matrix(1.0054 0 0 1 599.7837 296.3116)"><tspan x="0" y="0" fill="#3B936B" font-family="'BerninoSansOffc'" font-size="7.5241">12</tspan><tspan x="6.569" y="0" fill="#3B936B" font-family="'BerninoSansOffc'" font-size="6.5209">PM</tspan></text>
	</g>
	<g>
		<text transform="matrix(1.0054 0 0 1 637.3872 296.3116)"><tspan x="0" y="0" fill="#3B936B" font-family="'BerninoSansOffc'" font-size="7.5241">2</tspan><tspan x="3.832" y="0" fill="#3B936B" font-family="'BerninoSansOffc'" font-size="6.5209">PM</tspan></text>
	</g>
	<g>
		<text transform="matrix(1.0054 0 0 1 672.2402 296.3115)"><tspan x="0" y="0" fill="#3B936B" font-family="'BerninoSansOffc'" font-size="7.5241">4</tspan><tspan x="4.225" y="0" fill="#3B936B" font-family="'BerninoSansOffc'" font-size="6.5209">PM</tspan></text>
	</g>
	<g>
		<text transform="matrix(1.0054 0 0 1 538.3115 249.2828)" fill="#3B936B" font-family="'BerninoSansOffc'" font-size="7.5241">4.10</text>
	</g>
	<g>
		<text transform="matrix(1.0054 0 0 1 537.2104 229.6524)" fill="#3B936B" font-family="'BerninoSansOffc'" font-size="7.5241">4.20</text>
	</g>
	<g>
		<text transform="matrix(1.0054 0 0 1 537.3022 209.9688)" fill="#3B936B" font-family="'BerninoSansOffc'" font-size="7.5241">4.30</text>
	</g>
	<g>
		<text transform="matrix(1.0054 0 0 1 570.7047 318.2486)" fill="#CCCCCC" font-family="'ProximaNova-Regular'" font-size="8">1W</text>
	</g>
	<g>
		<text transform="matrix(1.0054 0 0 1 596.2409 318.2486)" fill="#CCCCCC" font-family="'ProximaNova-Regular'" font-size="8">1M</text>
	</g>
	<g>
		<text transform="matrix(1.0054 0 0 1 621.1819 318.2486)" fill="#CCCCCC" font-family="'ProximaNova-Regular'" font-size="8">3M</text>
	</g>
	<g>
		<text transform="matrix(1.0054 0 0 1 646.1229 318.2486)" fill="#CCCCCC" font-family="'ProximaNova-Regular'" font-size="8">6M</text>
	</g>
	<g>
		<text transform="matrix(1.0054 0 0 1 671.064 318.2486)" fill="#CCCCCC" font-family="'ProximaNova-Regular'" font-size="8">1Y</text>
	</g>
	<line fill="none" stroke="#3B936B" stroke-miterlimit="10" x1="570.379" y1="286.017" x2="570.379" y2="288.832"/>
	<line fill="none" stroke="#3B936B" stroke-miterlimit="10" x1="606.94" y1="286.017" x2="606.94" y2="288.832"/>
	<line fill="none" stroke="#3B936B" stroke-miterlimit="10" x1="643.501" y1="286.017" x2="643.501" y2="288.832"/>
	<line fill="none" stroke="#3B936B" stroke-miterlimit="10" x1="678.648" y1="286.017" x2="678.648" y2="288.832"/>
	
		<polyline fill="none" stroke="#FFFFFF" stroke-width="2" stroke-linecap="round" stroke-linejoin="round" stroke-miterlimit="10" points="
		555.137,239.237 559.032,242.19 559.032,245.006 561.806,249.283 564.831,244.003 567.101,244.504 568.614,246.775 
		571.387,249.283 578.564,246.549 581.473,238.125 588.701,242.19 594.837,242.19 598.115,240.742 599.628,240.492 604.923,244.003 
		609.209,248.266 611.782,245.939 613.428,250.098 616.168,253.987 620.556,242.19 625.778,240.993 628.135,235.977 
		632.407,235.977 636.441,233.72 639.719,233.72 641.484,238.125 643.501,240.241 648.292,240.492 652.199,238.125 657.874,242.19 
		661.908,244.254 666.195,238.125 671.633,238.125 675.987,233.72 679.054,228.805 683.797,226.196 688.383,224.44 	"/>
	<g>
		<text transform="matrix(1.0054 0 0 1 628.7324 177.6035)" fill="#FFFFFF" font-family="'ProximaNova-Regular'" font-size="20">111.78</text>
	</g>
	<g>
		<text transform="matrix(1.0054 0 0 1 628.6802 355.4996)" fill="#333333" font-family="'ProximaNova-Regular'" font-size="23">31.78</text>
	</g>
	<g>
		<text transform="matrix(1.0054 0 0 1 615.084 387.8863)" fill="#333333" font-family="'ProximaNova-Regular'" font-size="23">111.78</text>
	</g>
	<text transform="matrix(1.0054 0 0 1 537.3755 176.7798)"><tspan x="0" y="0" fill="#FFFFFF" font-family="'ProximaNova-Regular'" font-size="18.1148">S</tspan><tspan x="10.615" y="0" fill="#FFFFFF" font-family="'ProximaNova-Regular'" font-size="10.0321"> </tspan><tspan x="13.204" y="0" fill="#FFFFFF" font-family="'ProximaNova-Regular'" font-size="10">Sprint, Inc.</tspan></text>
	
		<text transform="matrix(1.0054 0 0 1 659.7573 192.4243)" fill="#FFFFFF" font-family="'ProximaNova-Regular'" font-size="11.5276">+4.19</text>
	<text transform="matrix(1.0054 0 0 1 538.8599 355.5)" fill="#999999" font-family="'ProximaNova-Regular'" font-size="10">Initial Investment</text>
	<text transform="matrix(1.0054 0 0 1 538.8599 387.8867)" fill="#999999" font-family="'ProximaNova-Regular'" font-size="10">The new value</text>
	<g>
		<text transform="matrix(1.0054 0 0 1 615.084 421.6456)" fill="#333333" font-family="'ProximaNova-Regular'" font-size="23">345.15</text>
	</g>
	<text transform="matrix(1.0054 0 0 1 538.8599 421.6465)" fill="#999999" font-family="'ProximaNova-Regular'" font-size="10">% Change </text>
	<text transform="matrix(1.0054 0 0 1 372.4595 178)" fill="#4D4D4D" font-family="'ProximaNova-RegularIt'" font-size="12">Stock Symbol</text>
	<g>
		<g>
			<line fill="none" stroke="#4D4D4D" stroke-miterlimit="10" x1="461" y1="173.5" x2="504" y2="173.5"/>
			<g>
				<circle fill="#4D4D4D" cx="504.249" cy="173.5" r="2.256"/>
			</g>
		</g>
	</g>
	<text transform="matrix(1.0054 0 0 1 786.001 178)" fill="#4D4D4D" font-family="'ProximaNova-RegularIt'" font-size="12">Stock Price</text>
	<g>
		<g>
			<line fill="none" stroke="#4D4D4D" stroke-miterlimit="10" x1="775" y1="173.5" x2="731" y2="173.5"/>
			<g>
				<circle fill="#4D4D4D" cx="730.761" cy="173.5" r="2.256"/>
			</g>
		</g>
	</g>
	<text transform="matrix(1.0054 0 0 1 786.001 237)" fill="#4D4D4D" font-family="'ProximaNova-RegularIt'" font-size="12">Line Chart</text>
	<g>
		<g>
			<line fill="none" stroke="#4D4D4D" stroke-miterlimit="10" x1="775" y1="232.5" x2="731" y2="232.5"/>
			<g>
				<circle fill="#4D4D4D" cx="730.761" cy="232.5" r="2.256"/>
			</g>
		</g>
	</g>
	<text transform="matrix(1.0054 0 0 1 786.001 318)"><tspan x="0" y="0" fill="#4D4D4D" font-family="'ProximaNova-RegularIt'" font-size="12">Adjust the time range to  </tspan><tspan x="0" y="14.4" fill="#4D4D4D" font-family="'ProximaNova-RegularIt'" font-size="12">see how your investment  </tspan><tspan x="0" y="28.8" fill="#4D4D4D" font-family="'ProximaNova-RegularIt'" font-size="12">chnages over time.</tspan></text>
	<g>
		<g>
			<line fill="none" stroke="#4D4D4D" stroke-miterlimit="10" x1="775" y1="313.5" x2="731" y2="313.5"/>
			<g>
				<circle fill="#4D4D4D" cx="730.761" cy="313.5" r="2.256"/>
			</g>
		</g>
	</g>
</g>
<g id="Modal">
</g>
</svg>
