<?xml version="1.0" encoding="utf-8"?>
<!-- Generator: Adobe Illustrator 17.1.0, SVG Export Plug-In . SVG Version: 6.00 Build 0)  -->
<!DOCTYPE svg PUBLIC "-//W3C//DTD SVG 1.1//EN" "http://www.w3.org/Graphics/SVG/1.1/DTD/svg11.dtd">
<svg version="1.1" xmlns="http://www.w3.org/2000/svg" xmlns:xlink="http://www.w3.org/1999/xlink" x="0px" y="0px"
	 viewBox="0 0 188 380" enable-background="new 0 0 188 380" xml:space="preserve">
<g id="Layer_1">
	<g>
		<rect x="12.617" y="47.277" fill="#FFFFFF" width="162" height="289"/>
		<g id="XMLID_5_">
			<g>
				<path fill="#E6E6E6" d="M161.013,208.539v45.752c0,1.403-1.139,2.542-2.542,2.542H93.528v-0.074v-0.308v-50.328v-0.127h64.943
					C159.874,205.997,161.013,207.136,161.013,208.539z"/>
				<path fill="#8CCBF9" d="M93.528,256.833H28.84c-1.403,0-2.542-1.139-2.542-2.542v-45.752c0-1.403,1.139-2.542,2.542-2.542
					h64.689v0.127v50.328v0.308V256.833z"/>
			</g>
			<g>
				<path fill="none" stroke="#000000" stroke-width="0.5" stroke-miterlimit="10" d="M93.528,205.997h64.943
					c1.403,0,2.542,1.139,2.542,2.542v45.752c0,1.403-1.139,2.542-2.542,2.542H93.528H28.84c-1.403,0-2.542-1.139-2.542-2.542
					v-45.752c0-1.403,1.139-2.542,2.542-2.542H93.528z"/>
				
					<line fill="none" stroke="#000000" stroke-width="0.5" stroke-miterlimit="10" x1="93.528" y1="206.124" x2="93.528" y2="256.452"/>
			</g>
		</g>
		<path fill="#46DC96" stroke="#00BD70" stroke-width="0.5" stroke-miterlimit="10" d="M158.089,303.983H28.457
			c-1.404,0-2.542-1.138-2.542-2.542V284.92c0-1.404,1.138-2.542,2.542-2.542h129.632c1.404,0,2.542,1.138,2.542,2.542v16.522
			C160.631,302.845,159.493,303.983,158.089,303.983z"/>
		<g>
			<text transform="matrix(1 0 0 1 77.6516 296.0668)" fill="#FFFFFF" font-family="'ProximaNova-Semibold'" font-size="10.1672">Submit</text>
		</g>
		<g>
			<g>
				<rect x="144.477" y="293.028" fill="#FFFFFF" width="9.178" height="1.017"/>
				<g>
					<polygon fill="#FFFFFF" points="150.622,297.28 149.998,296.61 153.304,293.538 149.998,290.465 150.622,289.794 
						154.648,293.538 					"/>
				</g>
			</g>
		</g>
		<g>
			<rect x="19.49" y="86.642" fill="none" width="148.627" height="75.075"/>
			<text transform="matrix(1 0 0 1 19.4904 93.7631)"><tspan x="0" y="0" fill="#58595B" font-family="'ProximaNova-Regular'" font-size="10.6755">Another possible question and </tspan><tspan x="0" y="12.963" fill="#58595B" font-family="'ProximaNova-Regular'" font-size="10.6755">answer format the user will see </tspan><tspan x="0" y="25.926" fill="#58595B" font-family="'ProximaNova-Regular'" font-size="10.6755">is a True or False scenario.  </tspan><tspan x="0" y="38.889" fill="#58595B" font-family="'ProximaNova-Regular'" font-size="10.6755">As consistent with the teaching, </tspan><tspan x="0" y="51.853" fill="#58595B" font-family="'ProximaNova-Regular'" font-size="10.6755">the question will be short. </tspan></text>
		</g>
		<path fill="none" stroke="#CBCBCB" stroke-miterlimit="10" d="M12.444,253.844"/>
		<g>
			<rect x="26.297" y="227.881" fill="none" width="67.485" height="10.427"/>
			<text transform="matrix(1 0 0 1 47.7531 236.0185)" fill="#FFFFFF" font-family="'ProximaNova-Regular'" font-size="12.2006">True</text>
		</g>
		<g>
			<rect x="93.273" y="227.881" fill="none" width="67.358" height="10.427"/>
			<text transform="matrix(1 0 0 1 112.7385 236.0185)" fill="#666666" font-family="'ProximaNova-Regular'" font-size="12.2006">False</text>
		</g>
		<rect x="12.56" y="47.266" fill="#F4F5F6" width="162.559" height="30.07"/>
		<line fill="none" stroke="#CAC9C9" stroke-miterlimit="10" x1="12.444" y1="77.336" x2="175.119" y2="77.336"/>
		<path fill="#221F1F" d="M26.285,56.294l-0.18-0.18c-0.198-0.198-0.52-0.198-0.719,0l-2.426,2.426l-2.426-2.426
			c-0.198-0.198-0.52-0.198-0.719,0l-0.18,0.18c-0.198,0.198-0.198,0.52,0,0.719l2.426,2.426l-2.426,2.426
			c-0.198,0.198-0.198,0.52,0,0.719l0.18,0.18c0.198,0.198,0.52,0.198,0.719,0l2.426-2.426l2.426,2.426
			c0.198,0.198,0.52,0.198,0.719,0l0.18-0.18c0.198-0.198,0.198-0.52,0-0.719l-2.426-2.426l2.426-2.426
			C26.484,56.814,26.484,56.492,26.285,56.294z"/>
		<g>
			<path fill="#EB2024" d="M166.359,56.228c-0.476,0-0.945,0.147-1.336,0.417c-0.353,0.243-0.258,0.243-0.61,0
				c-0.219-0.151-0.464-0.266-0.721-0.335c-0.923-0.25-1.929,0.098-2.504,0.86c-1.399,1.854,0.457,3.683,1.955,4.64
				c0.4,0.255,0.813,0.49,1.233,0.71c0.324,0.17,0.361,0.17,0.685,0c0.241-0.126,0.48-0.258,0.715-0.395
				c0.898-0.524,1.858-1.144,2.459-2.014C169.32,58.539,168.38,56.228,166.359,56.228z"/>
		</g>
		<g>
			<path fill="#EB2024" d="M156.326,56.228c-0.476,0-0.945,0.147-1.336,0.417c-0.353,0.243-0.258,0.243-0.61,0
				c-0.219-0.151-0.464-0.266-0.721-0.335c-0.923-0.25-1.929,0.098-2.504,0.86c-1.399,1.854,0.457,3.683,1.955,4.64
				c0.4,0.255,0.813,0.49,1.233,0.71c0.324,0.17,0.361,0.17,0.685,0c0.241-0.126,0.48-0.258,0.715-0.395
				c0.898-0.524,1.858-1.144,2.459-2.014C159.287,58.539,158.347,56.228,156.326,56.228z"/>
		</g>
		<g opacity="0.25">
			<g>
				<path fill="#EB2024" d="M146.293,56.228c-0.476,0-0.945,0.147-1.336,0.417c-0.353,0.243-0.258,0.243-0.61,0
					c-0.219-0.151-0.464-0.266-0.721-0.335c-0.923-0.25-1.929,0.098-2.504,0.86c-1.399,1.854,0.457,3.683,1.955,4.64
					c0.4,0.255,0.813,0.49,1.233,0.71c0.324,0.17,0.361,0.17,0.685,0c0.241-0.126,0.48-0.258,0.715-0.395
					c0.898-0.524,1.858-1.144,2.459-2.014C149.254,58.539,148.314,56.228,146.293,56.228z"/>
			</g>
		</g>
		<path fill="#3FA8F4" d="M28.711,71.917h-9.659c-0.14,0-0.254-0.114-0.254-0.254v-1.525c0-0.14,0.114-0.254,0.254-0.254h9.659
			c0.281,0,0.508,0.228,0.508,0.508v1.017C29.22,71.69,28.992,71.917,28.711,71.917z"/>
		<path fill="#3FA8F4" d="M40.277,71.917h-9.405c-0.281,0-0.508-0.228-0.508-0.508v-1.017c0-0.281,0.228-0.508,0.508-0.508h9.405
			c0.281,0,0.508,0.228,0.508,0.508v1.017C40.785,71.69,40.557,71.917,40.277,71.917z"/>
		<path fill="#3FA8F4" d="M51.842,71.917h-9.405c-0.281,0-0.508-0.228-0.508-0.508v-1.017c0-0.281,0.228-0.508,0.508-0.508h9.405
			c0.281,0,0.508,0.228,0.508,0.508v1.017C52.35,71.69,52.123,71.917,51.842,71.917z"/>
		<path fill="#3FA8F4" d="M63.407,71.917h-9.405c-0.281,0-0.508-0.228-0.508-0.508v-1.017c0-0.281,0.228-0.508,0.508-0.508h9.405
			c0.281,0,0.508,0.228,0.508,0.508v1.017C63.915,71.69,63.688,71.917,63.407,71.917z"/>
		<path fill="#CBCBCB" d="M74.972,71.917h-9.405c-0.281,0-0.508-0.228-0.508-0.508v-1.017c0-0.281,0.228-0.508,0.508-0.508h9.405
			c0.281,0,0.508,0.228,0.508,0.508v1.017C75.48,71.69,75.253,71.917,74.972,71.917z"/>
		<path fill="#CBCBCB" d="M86.537,71.917h-9.405c-0.281,0-0.508-0.228-0.508-0.508v-1.017c0-0.281,0.228-0.508,0.508-0.508h9.405
			c0.281,0,0.508,0.228,0.508,0.508v1.017C87.046,71.69,86.818,71.917,86.537,71.917z"/>
		<path fill="#CBCBCB" d="M98.102,71.917h-9.405c-0.281,0-0.508-0.228-0.508-0.508v-1.017c0-0.281,0.228-0.508,0.508-0.508h9.405
			c0.281,0,0.508,0.228,0.508,0.508v1.017C98.611,71.69,98.383,71.917,98.102,71.917z"/>
		<path fill="#CBCBCB" d="M109.668,71.917h-9.405c-0.281,0-0.508-0.228-0.508-0.508v-1.017c0-0.281,0.228-0.508,0.508-0.508h9.405
			c0.281,0,0.508,0.228,0.508,0.508v1.017C110.176,71.69,109.948,71.917,109.668,71.917z"/>
		<path fill="#CBCBCB" d="M121.233,71.917h-9.405c-0.281,0-0.508-0.228-0.508-0.508v-1.017c0-0.281,0.228-0.508,0.508-0.508h9.405
			c0.281,0,0.508,0.228,0.508,0.508v1.017C121.741,71.69,121.514,71.917,121.233,71.917z"/>
		<path fill="#CBCBCB" d="M132.798,71.917h-9.405c-0.281,0-0.508-0.228-0.508-0.508v-1.017c0-0.281,0.228-0.508,0.508-0.508h9.405
			c0.281,0,0.508,0.228,0.508,0.508v1.017C133.306,71.69,133.079,71.917,132.798,71.917z"/>
		<path fill="#CBCBCB" d="M144.363,71.917h-9.405c-0.281,0-0.508-0.228-0.508-0.508v-1.017c0-0.281,0.228-0.508,0.508-0.508h9.405
			c0.281,0,0.508,0.228,0.508,0.508v1.017C144.872,71.69,144.644,71.917,144.363,71.917z"/>
		<path fill="#CBCBCB" d="M155.928,71.917h-9.405c-0.281,0-0.508-0.228-0.508-0.508v-1.017c0-0.281,0.228-0.508,0.508-0.508h9.405
			c0.281,0,0.508,0.228,0.508,0.508v1.017C156.437,71.69,156.209,71.917,155.928,71.917z"/>
		<path fill="#CBCBCB" d="M167.493,71.917h-9.405c-0.281,0-0.508-0.228-0.508-0.508v-1.017c0-0.281,0.228-0.508,0.508-0.508h9.405
			c0.281,0,0.508,0.228,0.508,0.508v1.017C168.002,71.69,167.774,71.917,167.493,71.917z"/>
		<rect x="12.56" y="315.04" fill="#F5F6F6" width="162.487" height="20.97"/>
		<line fill="none" stroke="#C9C8C8" stroke-miterlimit="10" x1="12.617" y1="314.777" x2="174.617" y2="314.777"/>
		<line fill="none" stroke="#C9C8C8" stroke-miterlimit="10" x1="12.617" y1="314.777" x2="174.617" y2="314.777"/>
		<path fill="#CBCBCB" d="M149.502,321.529h-4.398l-0.34-0.464l-0.152-0.208h-0.258h-3.106h-0.258l-0.152,0.208l-0.34,0.464h-0.197
			c-0.489,0-0.886,0.398-0.886,0.886v6.89c0,0.489,0.398,0.886,0.886,0.886h9.201c0.489,0,0.887-0.398,0.887-0.886v-6.89
			C150.389,321.927,149.991,321.529,149.502,321.529z M140.301,322.038h0.455l0.492-0.672h3.106l0.492,0.672h4.656
			c0.209,0,0.378,0.169,0.378,0.378v1.14c-0.116-0.156-0.3-0.258-0.508-0.258h-8.941c-0.209,0-0.392,0.102-0.508,0.258v-1.14
			C139.923,322.207,140.092,322.038,140.301,322.038z M140.05,329.176v-5.243c0-0.21,0.171-0.381,0.381-0.381h8.941
			c0.21,0,0.381,0.171,0.381,0.381v5.243c0,0.21-0.171,0.381-0.381,0.381h-8.941C140.221,329.557,140.05,329.386,140.05,329.176z"/>
		<g>
			<path fill="#CBCBCB" d="M106.727,322.016c0.103-0.385-0.111-0.789-0.489-0.918l-1.693-0.58c-0.377-0.129-0.794,0.057-0.947,0.421
				l-2.228,5.012c-0.069,0.164-0.078,0.349-0.026,0.52l0.386,1.254l-0.097,0.618l2.106,0.722l0.302-0.547l1.074-0.754
				c0.146-0.102,0.252-0.254,0.3-0.431L106.727,322.016z M104.026,321.123c0.06-0.143,0.222-0.216,0.369-0.165l1.693,0.58
				c0.147,0.05,0.23,0.207,0.189,0.362l-1.274,5.161l-3.138-1.076L104.026,321.123z M104.848,327.381l-1.162,0.815l-0.165,0.299
				l-1.367-0.468l0.053-0.338l-0.418-1.357c-0.02-0.066-0.017-0.138,0.008-0.198l0.019-0.043l3.158,1.082l-0.01,0.041
				C104.946,327.283,104.905,327.342,104.848,327.381z"/>
			<path fill="#CBCBCB" d="M103.142,329.366l-1.223-0.419c-0.122-0.042-0.254,0.023-0.296,0.145l-0.253,0.737
				c-0.048,0.141,0.062,0.319,0.21,0.336l1.339-0.001c0.104,0,0.211-0.053,0.246-0.156l0.121-0.346
				C103.328,329.54,103.263,329.408,103.142,329.366z"/>
		</g>
		<g>
			<path fill="#CBCBCB" d="M127.504,322.16h-2.475c-0.147,0-0.267,0.119-0.267,0.267v0.008c0,0.147,0.119,0.267,0.267,0.267h2.475
				c0.147,0,0.267-0.12,0.267-0.267v-0.008C127.771,322.28,127.651,322.16,127.504,322.16z"/>
			<path fill="#CBCBCB" d="M125.029,328.81h2.475c0.147,0,0.267-0.12,0.267-0.267v-0.008c0-0.147-0.119-0.267-0.267-0.267h-2.475
				c-0.147,0-0.267,0.12-0.267,0.267v0.008C124.762,328.691,124.882,328.81,125.029,328.81z"/>
			<path fill="#CBCBCB" d="M120.021,324.34h0.008c0.147,0,0.267-0.119,0.267-0.267v-1.371h1.371c0.147,0,0.267-0.12,0.267-0.267
				v-0.008c0-0.147-0.119-0.267-0.267-0.267h-1.371v-1.371c0-0.147-0.119-0.267-0.267-0.267h-0.008c-0.147,0-0.267,0.12-0.267,0.267
				v1.371h-1.371c-0.147,0-0.267,0.119-0.267,0.267v0.008c0,0.147,0.119,0.267,0.267,0.267h1.371v1.371
				C119.754,324.22,119.874,324.34,120.021,324.34z"/>
			<path fill="#CBCBCB" d="M121.188,326.993l-1.163,1.163l-1.163-1.163c-0.104-0.104-0.273-0.104-0.377,0l-0.005,0.005
				c-0.104,0.104-0.104,0.273,0,0.377l1.163,1.163l-1.163,1.163c-0.104,0.104-0.104,0.273,0,0.377l0.005,0.005
				c0.104,0.104,0.273,0.104,0.377,0l1.163-1.163l1.163,1.163c0.104,0.104,0.273,0.104,0.377,0l0.005-0.005
				c0.104-0.104,0.104-0.273,0-0.377l-1.163-1.163l1.163-1.163c0.104-0.104,0.104-0.273,0-0.377l-0.005-0.005
				C121.462,326.889,121.293,326.889,121.188,326.993z"/>
			<circle fill="#CBCBCB" cx="126.266" cy="327.42" r="0.406"/>
			<circle fill="#CBCBCB" cx="126.266" cy="329.677" r="0.406"/>
			<polygon fill="#CBCBCB" points="123.174,325.435 123.174,319.816 122.994,319.816 122.994,325.435 117.465,325.435 
				117.465,325.615 122.994,325.615 122.994,331.234 123.174,331.234 123.174,325.615 128.702,325.615 128.702,325.435 			"/>
		</g>
		<g>
			<path fill="#CBCBCB" d="M162.353,324.5c0.131,0.122,0.337,0.115,0.459-0.016l1.619-1.741v4.347c0,0.179,0.145,0.325,0.325,0.325
				h0.08c0.179,0,0.325-0.145,0.325-0.325v-4.349l1.62,1.743c0.122,0.131,0.328,0.139,0.459,0.017l0.006-0.005
				c0.131-0.122,0.139-0.328,0.017-0.459l-2.198-2.365c-0.144-0.155-0.39-0.155-0.535,0l-2.199,2.365
				c-0.122,0.131-0.115,0.337,0.017,0.459L162.353,324.5z"/>
			<path fill="#CBCBCB" d="M168.176,327.508c-0.175,0-0.318,0.142-0.318,0.318v0.835c0,0.385-0.314,0.699-0.699,0.699h-4.724
				c-0.385,0-0.699-0.314-0.699-0.699v-0.835c0-0.175-0.142-0.318-0.318-0.318s-0.318,0.142-0.318,0.318v0.835
				c0,0.736,0.599,1.334,1.334,1.334h4.724c0.736,0,1.334-0.599,1.334-1.334v-0.835C168.493,327.65,168.351,327.508,168.176,327.508
				z"/>
		</g>
		<path fill="#FFFFFF" stroke="#C9C8C8" stroke-miterlimit="10" d="M83.927,332.134H21.399c-1.123,0-2.033-0.91-2.033-2.033v-9.15
			c0-1.123,0.91-2.033,2.033-2.033h62.528c1.123,0,2.033,0.91,2.033,2.033v9.15C85.96,331.223,85.05,332.134,83.927,332.134z"/>
		<g>
			<text transform="matrix(1 0 0 1 22.8615 328.246)" fill="#B9BBBD" font-family="'BerninoSansOffc'" font-size="7.6254">Start a note...</text>
		</g>
	</g>
	<g>
		<g id="XMLID_1_">
			<g>
				<path d="M5.869,354.173c0,11.933,9.706,21.639,21.639,21.639h132.841c11.933,0,21.639-9.706,21.639-21.639V29.738
					c0-11.933-9.706-21.639-21.639-21.639H27.508c-11.933,0-21.639,9.706-21.639,21.639V354.173z M-0.005,128.935v-21.639
					c0-0.662,0.535-1.205,1.197-1.205h0.766v-5.611H1.192c-0.662,0-1.197-0.535-1.197-1.197V77.636c0-0.662,0.535-1.197,1.197-1.197
					h0.766V61.258H1.192c-0.662,0-1.197-0.535-1.197-1.197V49.684c0-0.662,0.535-1.197,1.197-1.197h0.766V29.738
					c0-14.112,11.438-25.55,25.55-25.55h132.841c14.112,0,25.55,11.438,25.55,25.55v45.799h0.902c0.662,0,1.205,0.535,1.205,1.197
					v22.349c0,0.662-0.543,1.197-1.205,1.197h-0.902v253.892c0,14.112-11.438,25.55-25.55,25.55H27.508
					c-14.112,0-25.55-11.438-25.55-25.55V130.141H1.192C0.529,130.141-0.005,129.598-0.005,128.935z"/>
				<path fill="#FFFFFF" d="M5.869,354.173V29.738c0-11.933,9.706-21.639,21.639-21.639h132.841
					c11.933,0,21.639,9.706,21.639,21.639v324.435c0,11.933-9.706,21.639-21.639,21.639H27.508
					C15.575,375.812,5.869,366.106,5.869,354.173z M11.864,337.284h164.129V48.487H11.864V337.284z M76.699,30.249
					c2.043,0,3.704-1.66,3.704-3.704c0-2.051-1.66-3.712-3.704-3.712c-2.051,0-3.712,1.66-3.712,3.712
					C72.988,28.588,74.648,30.249,76.699,30.249z M88.417,26.545c0,0.998,0.806,1.804,1.804,1.804h24.648
					c0.998,0,1.804-0.806,1.804-1.804s-0.806-1.804-1.804-1.804H90.221C89.223,24.741,88.417,25.547,88.417,26.545z M79.804,355.362
					c0,7.79,6.338,14.12,14.12,14.12c7.79,0,14.128-6.33,14.128-14.12s-6.338-14.128-14.128-14.128
					C86.142,341.235,79.804,347.572,79.804,355.362z"/>
				<path d="M93.924,366.784c6.298,0,11.422-5.124,11.422-11.422c0-6.298-5.124-11.422-11.422-11.422s-11.414,5.124-11.414,11.422
					C82.51,361.66,87.627,366.784,93.924,366.784z M108.052,355.362c0,7.79-6.338,14.12-14.128,14.12
					c-7.782,0-14.12-6.33-14.12-14.12s6.338-14.128,14.12-14.128C101.714,341.235,108.052,347.572,108.052,355.362z"/>
				<path fill="#FFFFFF" d="M93.924,366.784c-6.298,0-11.414-5.124-11.414-11.422c0-6.298,5.116-11.422,11.414-11.422
					s11.422,5.124,11.422,11.422C105.346,361.66,100.222,366.784,93.924,366.784z"/>
				<path d="M90.221,28.349c-0.998,0-1.804-0.806-1.804-1.804s0.806-1.804,1.804-1.804h24.648c0.998,0,1.804,0.806,1.804,1.804
					s-0.806,1.804-1.804,1.804H90.221z"/>
				<path d="M80.403,26.545c0,2.043-1.66,3.704-3.704,3.704c-2.051,0-3.712-1.66-3.712-3.704c0-2.051,1.66-3.712,3.712-3.712
					C78.743,22.834,80.403,24.494,80.403,26.545z M75.694,26.545c0,0.551,0.447,0.998,1.006,0.998c0.551,0,0.998-0.447,0.998-0.998
					s-0.447-1.006-0.998-1.006C76.141,25.539,75.694,25.994,75.694,26.545z"/>
				<path d="M13.372,335.783h161.112V49.988H13.372V335.783z M11.864,337.284V48.487h164.129v288.797H11.864z"/>
			</g>
		</g>
	</g>
</g>
<g id="Modal">
</g>
</svg>
