<?xml version="1.0" encoding="utf-8"?>
<!-- Generator: Adobe Illustrator 17.1.0, SVG Export Plug-In . SVG Version: 6.00 Build 0)  -->
<!DOCTYPE svg PUBLIC "-//W3C//DTD SVG 1.1//EN" "http://www.w3.org/Graphics/SVG/1.1/DTD/svg11.dtd">
<svg version="1.1" id="Layer_1" xmlns="http://www.w3.org/2000/svg" xmlns:xlink="http://www.w3.org/1999/xlink" x="0px" y="0px"
	 viewBox="290 538 60 60" enable-background="new 290 538 60 60" xml:space="preserve">
<path fill="#142814" d="M329.7,563h-19.5c-0.3,0-0.5-0.2-0.5-0.5v-1.6c0-0.3,0.2-0.5,0.5-0.5h19.5c0.3,0,0.5,0.2,0.5,0.5v1.6
	C330.2,562.7,330,563,329.7,563z"/>
<path fill="#142814" d="M329.7,575.7h-19.5c-0.3,0-0.5-0.2-0.5-0.5v-1.6c0-0.3,0.2-0.5,0.5-0.5h19.5c0.3,0,0.5,0.2,0.5,0.5v1.6
	C330.2,575.5,330,575.7,329.7,575.7z"/>
<path fill="#142814" d="M329.7,569.3h-19.5c-0.3,0-0.5-0.2-0.5-0.5v-1.6c0-0.3,0.2-0.5,0.5-0.5h19.5c0.3,0,0.5,0.2,0.5,0.5v1.6
	C330.2,569.1,330,569.3,329.7,569.3z"/>
</svg>
