<?xml version="1.0" encoding="utf-8"?>
<!-- Generator: Adobe Illustrator 17.1.0, SVG Export Plug-In . SVG Version: 6.00 Build 0)  -->
<!DOCTYPE svg PUBLIC "-//W3C//DTD SVG 1.1//EN" "http://www.w3.org/Graphics/SVG/1.1/DTD/svg11.dtd">
<svg version="1.1" id="Layer_1" xmlns="http://www.w3.org/2000/svg" xmlns:xlink="http://www.w3.org/1999/xlink" x="0px" y="0px"
	 viewBox="0 0 40 40" enable-background="new 0 0 40 40" xml:space="preserve">
<g>
	<path fill="#00ACDD" d="M32.437,31.17c0,0.856-0.71,1.566-1.566,1.566h-6.266v-9.741h3.133l0.526-3.609h-3.659v-2.839
		c0-1.028,0.526-1.615,1.566-1.615h2.35v-3.255c0,0-1.053-0.171-2.57-0.171c-3.438,0-5.176,1.909-5.176,4.76v3.121h-3.133v3.609
		h3.133v9.741H8.94c-0.856,0-1.566-0.71-1.566-1.566V9.241c0-0.856,0.71-1.566,1.566-1.566h21.93c0.856,0,1.566,0.71,1.566,1.566
		V31.17z"/>
</g>
</svg>
