<?xml version="1.0" encoding="utf-8"?>
<!-- Generator: Adobe Illustrator 17.1.0, SVG Export Plug-In . SVG Version: 6.00 Build 0)  -->
<!DOCTYPE svg PUBLIC "-//W3C//DTD SVG 1.1//EN" "http://www.w3.org/Graphics/SVG/1.1/DTD/svg11.dtd">
<svg version="1.1" id="Layer_1" xmlns="http://www.w3.org/2000/svg" xmlns:xlink="http://www.w3.org/1999/xlink" x="0px" y="0px"
	 viewBox="0 0 40 40" enable-background="new 0 0 40 40" xml:space="preserve">
<g>
	<path fill="#00ACDD" d="M30.879,14.833c0,0.232,0,0.44,0,0.673c0,6.792-5.164,14.624-14.612,14.624c-2.9,0-5.629-0.637-7.893-2.093
		c0.404,0.062,0.808,0.086,1.224,0.086c2.398,0,4.638-1.04,6.376-2.436c-2.228-0.024-4.148-1.542-4.785-3.573
		c0.318,0.062,0.637,0.098,0.955,0.098c0.465,0,0.93-0.061,1.371-0.184c-2.35-0.465-4.124-2.545-4.124-5.041
		c0-0.025,0-0.025,0-0.062c0.698,0.379,1.481,0.612,2.325,0.636c-1.395-0.93-2.301-2.496-2.301-4.258
		c0-0.955,0.27-1.738,0.698-2.497c2.558,3.108,6.327,5.042,10.585,5.274c-0.086-0.367-0.11-0.783-0.11-1.187
		c0-2.839,2.289-5.127,5.128-5.127c1.48,0,2.814,0.636,3.781,1.615c1.15-0.232,2.264-0.661,3.243-1.248
		c-0.38,1.199-1.188,2.215-2.265,2.851c1.053-0.123,2.032-0.404,2.962-0.82C32.739,13.218,31.87,14.111,30.879,14.833z"/>
</g>
</svg>
