<?xml version="1.0" encoding="utf-8"?>
<!-- Generator: Adobe Illustrator 17.1.0, SVG Export Plug-In . SVG Version: 6.00 Build 0)  -->
<!DOCTYPE svg PUBLIC "-//W3C//DTD SVG 1.1//EN" "http://www.w3.org/Graphics/SVG/1.1/DTD/svg11.dtd">
<svg version="1.1" id="Layer_1" xmlns="http://www.w3.org/2000/svg" xmlns:xlink="http://www.w3.org/1999/xlink" x="0px" y="0px"
	 viewBox="0 0 792 612" enable-background="new 0 0 792 612" xml:space="preserve">
<g>
	
		<image overflow="visible" opacity="0.4" width="502" height="600" xlink:href="D3B828A4A84C928F.png"  transform="matrix(1 0 0 1 145 6)">
	</image>
	<g>
		<g>
			<path fill="#414042" d="M601.8,96.3l-72.5-15.8c-81.2-63.4-213.4-60.9-279,23.8c-49.3,63.6-60,149.7-65.7,227.4
				c-5,67.7-4.1,135.7-9.3,203.3l0-0.1c-4,49.7,73,55.9,77,6.2c8.5-104.7,0.4-212.9,26.8-315.4c13.7-53,40.9-104.2,100.4-111.1
				c24.6-2.9,53.8-0.1,76.5,10.6c90.1,38.6,103.8,162.4,68.5,242.8c-17.6,39.3-49,72.8-90.9,85.6c-37.9,11.6-76.6,4.5-115.1,1.9
				c-30.1-1.9-41,40.6-13.7,53.4c83,37.5,181.4,20.8,243.5-47.2c73.5-80.5,88.8-208.7,41.3-306C596.6,144.3,630.8,102.7,601.8,96.3"
				/>
			<path fill="#414042" d="M429.3,279.4c-10.7,48.9-50,87.1-99.5,96c-7.2,1.3-8.8,10.9-2.4,14.4c14.5,7.8,31.4,11.5,49.4,9.5
				c38.7-4.2,70.3-35.3,74.9-74c2.1-17.2-1-33.5-7.9-47.6C440.6,271.1,430.9,272.2,429.3,279.4"/>
		</g>
	</g>
</g>
</svg>
