<?xml version="1.0" encoding="utf-8"?>
<!-- Generator: Adobe Illustrator 17.1.0, SVG Export Plug-In . SVG Version: 6.00 Build 0)  -->
<!DOCTYPE svg PUBLIC "-//W3C//DTD SVG 1.1//EN" "http://www.w3.org/Graphics/SVG/1.1/DTD/svg11.dtd">
<svg version="1.1" xmlns="http://www.w3.org/2000/svg" xmlns:xlink="http://www.w3.org/1999/xlink" x="0px" y="0px"
	 viewBox="0 0 170 170" enable-background="new 0 0 170 170" xml:space="preserve">
<g id="Background">
</g>
<g id="Layer_1">
	<path fill="#4D4D4D" d="M52.501,30.762c-11.98,10.293-18.988,25.158-18.999,43.02C33.955,55.919,40.526,41.055,52.501,30.762z"/>
	<path fill="#4D4D4D" d="M72.873,130.307l-0.015,0.014c0.013,0,0.025-0.004,0.038-0.003L72.873,130.307z"/>
	<path fill="#FFFFFF" d="M72.063,131.031c-0.001,0.005,0.002,0.01,0.001,0.016l0.793-0.725
		C72.459,130.329,72.109,130.621,72.063,131.031z"/>
	<g>
		<g>
			<path fill="#FFF166" d="M130.953,71.401c-3.304,19.944-12.284,43.863-35.554,55.266c-10.511,5.15-20.386,6.046-25.704,6.086
				c5.793,2.284,12.702,3.484,20.167,3.484c12.117,0,22.456-4.289,29.898-12.404c9.572-10.437,13.736-26.296,12.042-45.864
				C131.596,75.589,131.312,73.427,130.953,71.401z"/>
			<path fill="#FFF166" d="M137.848,47.713c-0.434-0.886-1.202-1.505-2.161-1.743l-19.391-4.813l-0.481-0.481
				c-6.957-6.955-18.145-11.275-29.198-11.275c-1.703,0-3.389,0.066-5.051,0.196c-11.638,0.912-22.168,4.979-30.052,11.68
				c-0.061,0.052-0.118,0.108-0.178,0.16c-9.764,8.393-15.293,20.513-15.663,35.078c0,0.012-0.172,0.024-0.172,0.036v13.15
				c0,2.138,0.189,4.278,0.206,6.419c0.106,13.258,0.301,26.961-3.773,39.99c0.27,2.399,3.552,4.465,6.129,4.465l0.153,0.004
				c0.031,0.002,0.402,0.019,1.023,0.019c3.743,0,16.422-0.614,25.06-8.515l0.201-0.373c0-0.005,0-0.01,0-0.016
				c0-0.41,0.606-0.703,1.005-0.71l0.121-0.014l0.075,0.011c0.023,0.001,0.071-0.009,0.095-0.006
				c0.14,0.016,14.12,1.482,28.942-5.807c19.174-9.429,31.3-29.335,35.138-57.623l1.291-2.523l6.731-14.468
				C138.301,49.643,138.285,48.605,137.848,47.713z"/>
		</g>
		<path fill="#333333" d="M142.241,45.56c-1.065-2.173-3.025-3.754-5.376-4.338l-18.085-4.489
			C110.914,29.18,98.664,24.51,86.617,24.51c-14.787,0-28.604,4.632-38.498,13.041C37.143,46.882,31.5,60.325,30.5,76.484v13.219
			c0,2.151,0.242,4.305,0.26,6.458c0.104,13.016,0.02,26.476-3.952,38.884l-0.308,0.364v0.382c0,5.517,6.064,9.644,11.238,9.677
			c0.157,0.007,0.726,0.023,1.359,0.023c4.018,0,17.545-0.65,27.408-8.728c6.635,2.861,14.682,4.367,23.319,4.367
			c13.525,0,25.129-4.837,33.523-13.99c10.524-11.474,15.135-28.623,13.32-49.593c-0.294-3.391-0.724-6.409-1.321-9.195
			l7.024-15.814C143.361,50.295,143.315,47.752,142.241,45.56z M119.761,123.832c-7.442,8.115-17.781,12.404-29.898,12.404
			c-7.466,0-14.374-1.2-20.167-3.484c5.318-0.039,15.194-0.935,25.704-6.086c23.27-11.403,32.251-35.322,35.554-55.266
			c0.358,2.025,0.643,4.188,0.849,6.567C133.497,97.536,129.333,113.396,119.761,123.832z M137.9,50.555l-6.73,14.468l-1.287,2.523
			c-0.02,0.15-0.039,0.302-0.06,0.452c-3.905,28.049-16,47.792-35.072,57.171c-14.822,7.289-28.789,5.823-28.929,5.807
			c-0.024-0.003-0.045,0.006-0.069,0.006c-0.013,0-0.025,0.003-0.038,0.003l-0.793,0.725l-0.407,0.373
			c-8.638,7.901-21.522,8.515-25.265,8.515c-0.621,0-0.982-0.017-1.012-0.019l-0.132-0.004c-2.577,0-5.816-2.066-6.086-4.465
			c4.074-13.029,3.792-26.732,3.687-39.99c-0.017-2.14-0.206-4.281-0.206-6.419v-13.15c0-0.012,0.172-0.024,0.173-0.036
			c0.01-14.565,5.809-26.685,15.577-35.078c0.061-0.052,0.16-0.108,0.221-0.16c7.884-6.701,18.435-10.768,30.074-11.68
			c1.663-0.13,3.359-0.196,5.062-0.196c11.053,0,22.246,4.32,29.203,11.275l0.484,0.481l19.392,4.813
			c0.959,0.238,1.727,0.857,2.162,1.743C138.284,48.605,138.303,49.643,137.9,50.555z"/>
		<path fill="#333333" d="M83.142,118.181c-0.851,0-1.683-0.338-2.291-0.934c-0.63-0.618-0.977-1.444-0.977-2.328v-0.756
			c-1.125-0.037-2.529-0.135-4.037-0.362c-5.05-0.76-8.704-2.542-10.86-5.296c-0.833-1.064-0.645-2.601,0.418-3.434
			c1.064-0.833,2.601-0.645,3.434,0.418c2.811,3.591,10.582,3.941,13.339,3.775l2.595-0.158l0.003,4.076
			c4.997-0.526,15.277-3.42,17.847-18.072c0.234-1.331,1.501-2.221,2.832-1.987c1.331,0.234,2.22,1.501,1.987,2.832
			c-1.521,8.67-5.537,14.98-11.937,18.754c-5.11,3.013-10.296,3.431-12.289,3.471C83.184,118.181,83.163,118.181,83.142,118.181z"/>
	</g>
</g>
<g id="Gridlines" display="none">
</g>
</svg>
